# xmcd
#
# Track frame offsets:
#	150
#	17746
#	37312
#	54553
#	68192
#	90650
#	106990
#	123697
#	144658
#	166695
#
# Disc length: 2413 seconds
#
# Revision: 0
# Processed by: cddbd v1.5.2PL0 Copyright (c) Steve Scherf et al.
# Submitted via: EasyCDDAExtractor 10.0.2.1
#
DISCID=8b096b0a
DTITLE=Various Artist - HMG Christian Country Vol 127
DYEAR=2007
DGENRE=Gospel
TTITLE0=Joe Nichols - I'll Wait For You
TTITLE1=Deborah Hightower - Sending Me Angels
TTITLE2=Rich McCready - All I've Ever Known
TTITLE3=Gala Earlene - Your Love
TTITLE4=Beth Davidson - The Devil's Wife
TTITLE5=Mary Kilroy - On My Way Home
TTITLE6=Pamela Jean - Where Your Love Lies
TTITLE7=Clint MillerW The Jordanaires - Above The Clouds
TTITLE8=Albert Fugett - Thank You God For Your PreciousWord
TTITLE9=Bruce and Betsy Mullen - Old Winged Back Chair
EXTD=
EXTT0=
EXTT1=
EXTT2=
EXTT3=
EXTT4=
EXTT5=
EXTT6=
EXTT7=
EXTT8=
EXTT9=
PLAYORDER=
